<?xml version="1.0" encoding="UTF-8"?>
<svg version="1.1" xmlns="http://www.w3.org/2000/svg" width="243" height="78">
<path d="M0 0 C2.53554006 1.13237712 4.66136988 2.47273135 7 4 C7.33 3.01 7.66 2.02 8 1 C11.07877988 -0.53938994 13.68230655 -0.62146783 17 0 C20.99615619 1.72510395 24.69167387 3.9165185 28.4375 6.125 C30.06848633 7.06375977 30.06848633 7.06375977 31.73242188 8.02148438 C34.01292632 9.33721057 36.28940246 10.65994103 38.56201172 11.98925781 C41.91969145 13.95303073 45.28812549 15.8969324 48.66015625 17.8359375 C72.73269979 31.73269979 72.73269979 31.73269979 77 36 C77.375 38.875 77.375 38.875 77 42 C74.18638106 45.3487396 71.01059098 47.33760596 67.22265625 49.46875 C66.07885498 50.11682617 64.93505371 50.76490234 63.7565918 51.43261719 C62.52528125 52.12184017 61.29391618 52.81096577 60.0625 53.5 C58.80146525 54.21190313 57.54080741 54.92447428 56.28051758 55.63769531 C53.73779429 57.07582842 51.19334829 58.51083545 48.64746094 59.94335938 C43.4796862 62.85360572 38.33381501 65.80202445 33.1875 68.75 C30.81966689 70.10343994 28.45175055 71.45663816 26.08056641 72.80419922 C24.71540021 73.58882536 23.35789391 74.38696459 22.00927734 75.19970703 C17.7373053 77.75251209 15.01352199 78.57848331 10 78 C8.515 77.01 8.515 77.01 7 76 C7 75.34 7 74.68 7 74 C5.4840625 74.99 5.4840625 74.99 3.9375 76 C0.18771818 78.14490563 -2.65351064 78.501518 -7 78 C-10 76 -10 76 -10.45336914 74.06323242 C-10.5147155 66.44463524 -8.25940562 60.31904426 -5.4375 53.3125 C-0.10482174 40.04756101 -1.98321452 33.29157635 -7.20507812 20.35742188 C-9.48853073 14.40723163 -11.39001981 8.41045356 -10 2 C-6.22786948 -0.51475368 -4.47964158 -0.44796416 0 0 Z M13 6 C14.27525984 9.82577953 15.44428272 10.08483118 18.93359375 11.96875 C20.48421509 12.81808105 20.48421509 12.81808105 22.06616211 13.68457031 C23.17870361 14.28366211 24.29124512 14.88275391 25.4375 15.5 C27.72024954 16.75247916 30.00148909 18.00771414 32.28125 19.265625 C33.415625 19.89146484 34.55 20.51730469 35.71875 21.16210938 C40.35388985 23.7583395 44.90858023 26.47343361 49.4375 29.25 C50.1812085 29.70310547 50.92491699 30.15621094 51.69116211 30.62304688 C54.35332074 32.26519106 56.78015517 33.78015517 59 36 C59.21676408 39.39597063 59.08073852 41.75778445 58 45 C55.77685547 46.00366211 55.77685547 46.00366211 53 47 C51.17506819 47.95219 49.36597897 48.93511413 47.5703125 49.94140625 C46.53382568 50.52132324 45.49733887 51.10124023 44.42944336 51.69873047 C43.33897705 52.31377441 42.24851074 52.92881836 41.125 53.5625 C40.0119751 54.18785645 38.8989502 54.81321289 37.75219727 55.45751953 C29.41204942 60.16091521 21.15710393 64.98636539 13 70 C13.33 70.66 13.66 71.32 14 72 C14.70157227 71.59910156 15.40314453 71.19820313 16.12597656 70.78515625 C21.18798828 67.89257812 21.18798828 67.89257812 26.25 65 C26.86782349 64.64695801 27.48564697 64.29391602 28.12219238 63.93017578 C49.06109619 51.96508789 49.06109619 51.96508789 70 40 C70 39.34 70 38.68 70 38 C68.96166016 37.42838135 68.96166016 37.42838135 67.90234375 36.84521484 C54.06768007 29.21928939 40.29716437 21.51510024 26.69335938 13.48193359 C22.19248418 10.82979993 17.71879281 8.24478586 13 6 Z " fill="#010003" transform="translate(10,0)"/>
<path d="M0 0 C8.26535555 4.01279016 16.2695043 8.34175718 24.1875 13 C25.20263672 13.59039062 26.21777344 14.18078125 27.26367188 14.7890625 C43.00376652 24.00376652 43.00376652 24.00376652 47 28 C47.375 30.875 47.375 30.875 47 34 C44.13412349 37.42749655 40.84397557 39.43208651 36.9765625 41.609375 C36.10262344 42.10513031 36.10262344 42.10513031 35.21102905 42.61090088 C33.35242396 43.6634345 31.48891532 44.70690476 29.625 45.75 C28.41241684 46.43428737 27.20017437 47.1191788 25.98828125 47.8046875 C23.5657579 49.17414134 21.14142344 50.54030629 18.71582031 51.90429688 C12.79316648 55.2389699 6.89757444 58.62124017 1 62 C0 60 0 60 0.71264648 57.60498047 C1.09493408 56.61900879 1.47722168 55.63303711 1.87109375 54.6171875 C2.28037109 53.53179687 2.68964844 52.44640625 3.11132812 51.328125 C3.98709808 49.04776965 4.86722447 46.76908204 5.75195312 44.4921875 C10.34317875 32.26813936 9.16563475 26.25845254 4.5 14.125 C3.65376512 11.87853864 2.80988784 9.6311873 1.96875 7.3828125 C1.59169922 6.39684082 1.21464844 5.41086914 0.82617188 4.39501953 C0 2 0 2 0 0 Z " fill="#7621F0" transform="translate(23,8)"/>
<path d="M0 0 C4.77320799 1.59106933 4.77320799 1.59106933 7 4 C8.00725063 6.64462961 8.50842539 9.24381202 9.04296875 12.0234375 C10.39668846 18.37226491 13.0399749 24.40367591 15.39624023 30.43310547 C15.74501221 31.35236816 16.09378418 32.27163086 16.453125 33.21875 C16.77442383 34.04310547 17.09572266 34.86746094 17.42675781 35.71679688 C18.08717929 38.34723199 17.89391266 39.46513634 17 42 C16.54270508 43.30578003 16.54270508 43.30578003 16.07617188 44.63793945 C15.71072266 45.61980225 15.34527344 46.60166504 14.96875 47.61328125 C14.57042969 48.69673828 14.17210938 49.78019531 13.76171875 50.89648438 C12.9243805 53.16351936 12.08326704 55.42916372 11.23828125 57.69335938 C8.75277103 64.27258242 8.75277103 64.27258242 7.4140625 71.140625 C7 74 7 74 3.875 76.4375 C0.19439482 78.20206998 -2.92057409 78.47070299 -7 78 C-10 76 -10 76 -10.45336914 74.06323242 C-10.5147155 66.44463524 -8.25940562 60.31904426 -5.4375 53.3125 C-0.10482174 40.04756101 -1.98321452 33.29157635 -7.20507812 20.35742188 C-9.48853073 14.40723163 -11.39001981 8.41045356 -10 2 C-6.22786948 -0.51475368 -4.47964158 -0.44796416 0 0 Z " fill="#771EF1" transform="translate(10,0)"/>
<path d="M0 0 C2.68009511 0.60800706 5.15701203 0.58346377 7.90234375 0.55078125 C8.8871875 0.54175781 9.87203125 0.53273438 10.88671875 0.5234375 C11.634375 0.51183594 12.38203125 0.50023438 13.15234375 0.48828125 C13.2267113 5.09639995 13.28104769 9.70416639 13.31713867 14.31274414 C13.33218997 15.87921232 13.35263582 17.44563861 13.37866211 19.01196289 C13.41520808 21.26849731 13.43210636 23.52447278 13.4453125 25.78125 C13.46079636 26.47727829 13.47628021 27.17330658 13.49223328 27.89042664 C13.49374315 32.29029457 12.82971009 34.98494839 10.15234375 38.48828125 C5.65260004 42.27039342 2.47735237 43.01457711 -3.34765625 42.92578125 C-5.2503125 42.92384766 -5.2503125 42.92384766 -7.19140625 42.921875 C-11.08951516 42.45959926 -13.53204071 41.56054096 -16.84765625 39.48828125 C-18.84765625 36.48828125 -18.84765625 36.48828125 -18.84765625 34.48828125 C-17.32376988 31.44050852 -14.88811551 30.7820937 -11.84765625 29.48828125 C-12.79640625 28.74578125 -13.74515625 28.00328125 -14.72265625 27.23828125 C-18.09243366 24.60106415 -19.61919835 22.22296739 -20.18359375 17.9375 C-20.27393016 11.55071562 -19.93647215 7.52067005 -15.84765625 2.48828125 C-10.77010197 -0.48160899 -5.78097039 -1.60107214 0 0 Z M-6.66015625 10.61328125 C-8.15671743 12.56097332 -8.15671743 12.56097332 -7.59765625 15.61328125 C-7.13832101 18.36618966 -7.13832101 18.36618966 -5.84765625 19.48828125 C-3.01406083 19.78655445 -1.40980247 19.84430719 1.02734375 18.30078125 C2.40411972 16.4790387 2.40411972 16.4790387 1.96484375 13.92578125 C1.30607342 11.34386853 1.30607342 11.34386853 -0.84765625 9.48828125 C-4.63677214 9.13670601 -4.63677214 9.13670601 -6.66015625 10.61328125 Z M-5.53515625 28.92578125 C-6.34339844 29.02761719 -7.15164062 29.12945312 -7.984375 29.234375 C-8.90669922 29.36005859 -8.90669922 29.36005859 -9.84765625 29.48828125 C-8.18220286 31.6546979 -8.18220286 31.6546979 -5.84765625 33.48828125 C-2.77667246 33.41337921 -1.36205589 32.93172921 0.96484375 30.92578125 C1.35671875 30.45140625 1.74859375 29.97703125 2.15234375 29.48828125 C-0.94244504 28.45668499 -2.37397018 28.51345263 -5.53515625 28.92578125 Z " fill="#000000" transform="translate(112.84765625,26.51171875)"/>
<path d="M0 0 C3.62011046 2.33296007 5.89022378 4.96794755 7.8125 8.8125 C8.57190356 15.62223353 8.04678614 20.35249945 3.8125 25.8125 C-0.91512396 29.22078704 -5.55666614 29.37022069 -11.1875 28.8125 C-12.1775 28.4825 -13.1675 28.1525 -14.1875 27.8125 C-14.1875 32.4325 -14.1875 37.0525 -14.1875 41.8125 C-17.8175 41.8125 -21.4475 41.8125 -25.1875 41.8125 C-25.1875 27.9525 -25.1875 14.0925 -25.1875 -0.1875 C-21.2275 -0.1875 -17.2675 -0.1875 -13.1875 -0.1875 C-8.48227445 -1.75590852 -4.66101184 -1.73645539 0 0 Z M-13 9.9375 C-14.50920103 11.89532518 -14.50920103 11.89532518 -13.875 15 C-13.648125 15.928125 -13.42125 16.85625 -13.1875 17.8125 C-9.09207219 18.95453952 -9.09207219 18.95453952 -5.25 17.6875 C-3.9501678 15.79816322 -3.9501678 15.79816322 -4.375 13.25 C-5.03377033 10.66808728 -5.03377033 10.66808728 -7.1875 8.8125 C-10.97661589 8.46092476 -10.97661589 8.46092476 -13 9.9375 Z " fill="#000000" transform="translate(183.1875,27.1875)"/>
<path d="M0 0 C3.2761754 2.34012529 4.8470648 4.25074748 6.625 7.875 C7.13302427 11.52418843 6.87381289 14.92498715 5.9375 18.5 C5.36571267 21.04212472 5.36571267 21.04212472 7.125 23.625 C9.15596513 28.02542444 8.71559154 31.23783912 7.625 35.875 C6.23270296 39.56049216 4.44197787 41.23394248 1.125 43.1875 C-4.6108493 45.77074095 -10.75969791 46.04045923 -16.75 44.109375 C-20.43965886 42.40019479 -23.54717342 40.64489233 -25.375 36.875 C-25.5625 34.125 -25.5625 34.125 -25.375 31.875 C-24.10808493 31.20091692 -22.83629251 30.53599503 -21.5625 29.875 C-20.85480469 29.50375 -20.14710938 29.1325 -19.41796875 28.75 C-17.375 27.875 -17.375 27.875 -14.375 27.875 C-14.0346875 29.0815625 -14.0346875 29.0815625 -13.6875 30.3125 C-12.61875877 33.08369776 -12.61875877 33.08369776 -9.9375 33.875 C-7.32406139 34.14038732 -7.32406139 34.14038732 -5.5625 32.4375 C-5.170625 31.921875 -4.77875 31.40625 -4.375 30.875 C-5.00033375 28.35136012 -5.00033375 28.35136012 -6.375 25.875 C-8.92275306 24.98113836 -8.92275306 24.98113836 -11.375 24.875 C-11.375 22.235 -11.375 19.595 -11.375 16.875 C-10.570625 16.6275 -9.76625 16.38 -8.9375 16.125 C-6.22497953 15.1487391 -6.22497953 15.1487391 -5.5 12.8125 C-5.45875 12.173125 -5.4175 11.53375 -5.375 10.875 C-6.44145115 9.57866379 -6.44145115 9.57866379 -8.9375 9.8125 C-9.741875 9.833125 -10.54625 9.85375 -11.375 9.875 C-12.035 11.195 -12.695 12.515 -13.375 13.875 C-17.33320859 13.30954163 -20.0409053 12.06597652 -23.375 9.875 C-22.89499859 5.55498734 -21.75996591 3.60177809 -18.375 0.875 C-12.8501012 -2.37494047 -5.90304232 -1.96768077 0 0 Z " fill="#000000" transform="translate(217.375,11.125)"/>
<path d="M0 0 C1.22589844 0.15275391 1.22589844 0.15275391 2.4765625 0.30859375 C3.41628906 0.43427734 3.41628906 0.43427734 4.375 0.5625 C5.46284335 3.87645986 5.44762544 4.39830335 3.9375 7.8125 C3.421875 8.72 2.90625 9.6275 2.375 10.5625 C0.35677083 10.46484375 -1.66145833 10.3671875 -3.6796875 10.26953125 C-4.64261719 10.41455078 -4.64261719 10.41455078 -5.625 10.5625 C-8.02619059 14.16428588 -8.06271322 17.07116369 -8.25 21.25 C-8.30800781 22.3028418 -8.30800781 22.3028418 -8.3671875 23.37695312 C-8.4612334 25.10504655 -8.5441968 26.83373675 -8.625 28.5625 C-12.255 28.5625 -15.885 28.5625 -19.625 28.5625 C-19.625 19.3225 -19.625 10.0825 -19.625 0.5625 C-15.335 0.5625 -11.045 0.5625 -6.625 0.5625 C-4.10446405 -0.69776798 -2.7707902 -0.35624445 0 0 Z " fill="#000000" transform="translate(150.625,26.4375)"/>
<path d="M0 0 C2.05859375 -0.3984375 2.05859375 -0.3984375 4.4375 -0.375 C5.21996094 -0.38273437 6.00242188 -0.39046875 6.80859375 -0.3984375 C9.49566405 0.09012074 10.37824613 0.83256165 12 3 C12.53520313 6.59350675 12.44814771 8.31881548 10.4375 11.375 C7.1005787 13.5996142 4.93094707 13.50030235 1 13 C-0.9375 11.9375 -0.9375 11.9375 -2 10 C-2.38991688 5.63293092 -2.46324069 3.69486103 0 0 Z " fill="#000000" transform="translate(231,43)"/>
<path d="M0 0 C0.99 0.33 1.98 0.66 3 1 C3 1.66 3 2.32 3 3 C3.61875 2.505 4.2375 2.01 4.875 1.5 C7 0 7 0 9 0 C9 3.3 9 6.6 9 10 C8.34 10 7.68 10 7 10 C6.67 8.68 6.34 7.36 6 6 C5.01 6 4.02 6 3 6 C2.67 7.32 2.34 8.64 2 10 C1.34 10 0.68 10 0 10 C0 6.7 0 3.4 0 0 Z " fill="#000000" transform="translate(198,58)"/>
<path d="M0 0 C1.98 0 3.96 0 6 0 C6.33 0.66 6.66 1.32 7 2 C5.02 2 3.04 2 1 2 C1 2.66 1 3.32 1 4 C3.97 4.495 3.97 4.495 7 5 C7.33 5.99 7.66 6.98 8 8 C7.67 8.66 7.34 9.32 7 10 C4.36 10 1.72 10 -1 10 C-1 9.34 -1 8.68 -1 8 C1.97 8.495 1.97 8.495 5 9 C5 8.01 5 7.02 5 6 C2.03 5.505 2.03 5.505 -1 5 C-0.67 3.35 -0.34 1.7 0 0 Z " fill="#000000" transform="translate(212,58)"/>
<path d="M0 0 C0.66 0 1.32 0 2 0 C2 3.3 2 6.6 2 10 C1.34 10 0.68 10 0 10 C0 6.7 0 3.4 0 0 Z " fill="#000000" transform="translate(191,58)"/>
</svg>
